<mxfile host="Electron" agent="Mozilla/5.0 (Windows NT 10.0; Win64; x64) AppleWebKit/537.36 (KHTML, like Gecko) draw.io/25.0.2 Chrome/128.0.6613.186 Electron/32.2.5 Safari/537.36" version="25.0.2">
  <diagram name="Provisionamento na aws" id="cRvSbZMj0kVbqhlh-2Od">
    <mxGraphModel dx="2056" dy="836" grid="1" gridSize="10" guides="1" tooltips="1" connect="1" arrows="1" fold="1" page="1" pageScale="1" pageWidth="1169" pageHeight="827" math="0" shadow="0">
      <root>
        <mxCell id="0" />
        <mxCell id="1" parent="0" />
        <mxCell id="S9O7igzcls7aCkLc2M0E-1" value="" style="rounded=1;whiteSpace=wrap;html=1;" vertex="1" parent="1">
          <mxGeometry x="80" y="269" width="150" height="290" as="geometry" />
        </mxCell>
        <mxCell id="S9O7igzcls7aCkLc2M0E-2" value="Navegador" style="rounded=1;whiteSpace=wrap;html=1;" vertex="1" parent="1">
          <mxGeometry x="95" y="384" width="120" height="60" as="geometry" />
        </mxCell>
        <mxCell id="S9O7igzcls7aCkLc2M0E-3" value="Usuario" style="shape=umlActor;verticalLabelPosition=bottom;verticalAlign=top;html=1;outlineConnect=0;" vertex="1" parent="1">
          <mxGeometry x="130" y="150" width="30" height="60" as="geometry" />
        </mxCell>
        <mxCell id="S9O7igzcls7aCkLc2M0E-4" value="" style="endArrow=classic;html=1;rounded=0;exitX=1.02;exitY=0.279;exitDx=0;exitDy=0;exitPerimeter=0;" edge="1" parent="1" source="S9O7igzcls7aCkLc2M0E-1">
          <mxGeometry width="50" height="50" relative="1" as="geometry">
            <mxPoint x="320" y="270" as="sourcePoint" />
            <mxPoint x="310" y="210" as="targetPoint" />
          </mxGeometry>
        </mxCell>
        <mxCell id="S9O7igzcls7aCkLc2M0E-5" value="Browser" style="text;html=1;align=center;verticalAlign=middle;resizable=0;points=[];autosize=1;strokeColor=none;fillColor=none;" vertex="1" parent="1">
          <mxGeometry x="290" y="170" width="70" height="30" as="geometry" />
        </mxCell>
        <mxCell id="S9O7igzcls7aCkLc2M0E-6" value="" style="rounded=1;whiteSpace=wrap;html=1;" vertex="1" parent="1">
          <mxGeometry x="460" y="210" width="590" height="396" as="geometry" />
        </mxCell>
        <mxCell id="S9O7igzcls7aCkLc2M0E-7" value="AWS" style="text;html=1;align=center;verticalAlign=middle;whiteSpace=wrap;rounded=0;" vertex="1" parent="1">
          <mxGeometry x="510" y="180" width="60" height="30" as="geometry" />
        </mxCell>
        <mxCell id="S9O7igzcls7aCkLc2M0E-8" value="" style="rounded=1;whiteSpace=wrap;html=1;" vertex="1" parent="1">
          <mxGeometry x="670" y="259" width="340" height="310" as="geometry" />
        </mxCell>
        <mxCell id="S9O7igzcls7aCkLc2M0E-9" value="Rede na AWS" style="text;html=1;align=center;verticalAlign=middle;whiteSpace=wrap;rounded=0;" vertex="1" parent="1">
          <mxGeometry x="740" y="229" width="160" height="30" as="geometry" />
        </mxCell>
        <mxCell id="S9O7igzcls7aCkLc2M0E-10" value="" style="rounded=1;whiteSpace=wrap;html=1;" vertex="1" parent="1">
          <mxGeometry x="500" y="340" width="120" height="190" as="geometry" />
        </mxCell>
        <mxCell id="S9O7igzcls7aCkLc2M0E-11" value="Cloud shell" style="text;html=1;align=center;verticalAlign=middle;whiteSpace=wrap;rounded=0;" vertex="1" parent="1">
          <mxGeometry x="530" y="340" width="60" height="30" as="geometry" />
        </mxCell>
        <mxCell id="S9O7igzcls7aCkLc2M0E-13" value="" style="endArrow=classic;html=1;rounded=0;exitX=1.033;exitY=0.6;exitDx=0;exitDy=0;exitPerimeter=0;entryX=0.042;entryY=0.632;entryDx=0;entryDy=0;entryPerimeter=0;" edge="1" parent="1" source="S9O7igzcls7aCkLc2M0E-1" target="S9O7igzcls7aCkLc2M0E-10">
          <mxGeometry width="50" height="50" relative="1" as="geometry">
            <mxPoint x="340" y="530" as="sourcePoint" />
            <mxPoint x="390" y="480" as="targetPoint" />
          </mxGeometry>
        </mxCell>
        <mxCell id="S9O7igzcls7aCkLc2M0E-15" value="" style="rounded=1;whiteSpace=wrap;html=1;" vertex="1" parent="1">
          <mxGeometry x="705" y="310" width="270" height="220" as="geometry" />
        </mxCell>
        <mxCell id="S9O7igzcls7aCkLc2M0E-17" value="Bia-dev" style="text;html=1;align=center;verticalAlign=middle;resizable=0;points=[];autosize=1;strokeColor=none;fillColor=none;" vertex="1" parent="1">
          <mxGeometry x="740" y="280" width="60" height="30" as="geometry" />
        </mxCell>
        <mxCell id="S9O7igzcls7aCkLc2M0E-18" value="1 giga de storage&amp;nbsp;" style="text;html=1;align=center;verticalAlign=middle;whiteSpace=wrap;rounded=0;" vertex="1" parent="1">
          <mxGeometry x="512.5" y="393" width="95" height="30" as="geometry" />
        </mxCell>
        <mxCell id="S9O7igzcls7aCkLc2M0E-19" value="2 giga de ram" style="text;html=1;align=center;verticalAlign=middle;whiteSpace=wrap;rounded=0;" vertex="1" parent="1">
          <mxGeometry x="530" y="470" width="60" height="30" as="geometry" />
        </mxCell>
        <mxCell id="S9O7igzcls7aCkLc2M0E-20" value="" style="endArrow=none;dashed=1;html=1;dashPattern=1 3;strokeWidth=2;rounded=0;exitX=1.013;exitY=0.403;exitDx=0;exitDy=0;exitPerimeter=0;entryX=0;entryY=0.25;entryDx=0;entryDy=0;" edge="1" parent="1" source="S9O7igzcls7aCkLc2M0E-1" target="S9O7igzcls7aCkLc2M0E-15">
          <mxGeometry width="50" height="50" relative="1" as="geometry">
            <mxPoint x="320" y="370" as="sourcePoint" />
            <mxPoint x="370" y="320" as="targetPoint" />
            <Array as="points">
              <mxPoint x="480" y="250" />
            </Array>
          </mxGeometry>
        </mxCell>
        <mxCell id="S9O7igzcls7aCkLc2M0E-21" value="" style="rounded=1;whiteSpace=wrap;html=1;dashed=1;" vertex="1" parent="1">
          <mxGeometry x="770" y="357" width="120" height="102" as="geometry" />
        </mxCell>
        <mxCell id="S9O7igzcls7aCkLc2M0E-22" value="" style="endArrow=classic;html=1;rounded=0;exitX=0.325;exitY=1.005;exitDx=0;exitDy=0;exitPerimeter=0;" edge="1" parent="1" source="S9O7igzcls7aCkLc2M0E-10">
          <mxGeometry width="50" height="50" relative="1" as="geometry">
            <mxPoint x="550" y="720" as="sourcePoint" />
            <mxPoint x="600" y="670" as="targetPoint" />
          </mxGeometry>
        </mxCell>
        <mxCell id="S9O7igzcls7aCkLc2M0E-23" value="Validar recurso&amp;nbsp;&lt;div&gt;Criar rule&amp;nbsp;&lt;/div&gt;&lt;div&gt;lanÃ§ar ec2&lt;br&gt;&lt;div&gt;&lt;br&gt;&lt;/div&gt;&lt;/div&gt;" style="text;html=1;align=center;verticalAlign=middle;whiteSpace=wrap;rounded=0;" vertex="1" parent="1">
          <mxGeometry x="550" y="700" width="140" height="30" as="geometry" />
        </mxCell>
        <mxCell id="S9O7igzcls7aCkLc2M0E-24" value="3001 - 8080" style="text;html=1;align=center;verticalAlign=middle;whiteSpace=wrap;rounded=0;" vertex="1" parent="1">
          <mxGeometry x="720" y="384" width="100" height="30" as="geometry" />
        </mxCell>
        <mxCell id="S9O7igzcls7aCkLc2M0E-26" value="container&amp;nbsp;" style="text;html=1;align=center;verticalAlign=middle;whiteSpace=wrap;rounded=0;" vertex="1" parent="1">
          <mxGeometry x="800" y="330" width="60" height="30" as="geometry" />
        </mxCell>
        <mxCell id="S9O7igzcls7aCkLc2M0E-27" value="SSM Agent&amp;nbsp;" style="text;html=1;align=center;verticalAlign=middle;whiteSpace=wrap;rounded=0;" vertex="1" parent="1">
          <mxGeometry x="820" y="269" width="140" height="30" as="geometry" />
        </mxCell>
        <mxCell id="S9O7igzcls7aCkLc2M0E-28" value="" style="endArrow=none;dashed=1;html=1;dashPattern=1 3;strokeWidth=2;rounded=0;startArrow=classic;startFill=1;fillColor=#60a917;strokeColor=#2D7600;" edge="1" parent="1" target="S9O7igzcls7aCkLc2M0E-27">
          <mxGeometry width="50" height="50" relative="1" as="geometry">
            <mxPoint x="590" y="290" as="sourcePoint" />
            <mxPoint x="607.5" y="290" as="targetPoint" />
            <Array as="points">
              <mxPoint x="620" y="240" />
            </Array>
          </mxGeometry>
        </mxCell>
        <mxCell id="S9O7igzcls7aCkLc2M0E-29" value="ssm" style="text;html=1;align=center;verticalAlign=middle;whiteSpace=wrap;rounded=0;" vertex="1" parent="1">
          <mxGeometry x="555" y="250" width="60" height="30" as="geometry" />
        </mxCell>
        <mxCell id="S9O7igzcls7aCkLc2M0E-30" value="" style="endArrow=none;dashed=1;html=1;dashPattern=1 3;strokeWidth=2;rounded=0;" edge="1" parent="1" target="S9O7igzcls7aCkLc2M0E-29">
          <mxGeometry width="50" height="50" relative="1" as="geometry">
            <mxPoint x="530" y="340" as="sourcePoint" />
            <mxPoint x="480" y="370" as="targetPoint" />
          </mxGeometry>
        </mxCell>
      </root>
    </mxGraphModel>
  </diagram>
</mxfile>
